<mxfile host="Electron" modified="2024-01-05T09:49:19.659Z" agent="Mozilla/5.0 (Windows NT 10.0; Win64; x64) AppleWebKit/537.36 (KHTML, like Gecko) draw.io/22.1.16 Chrome/120.0.6099.109 Electron/28.1.0 Safari/537.36" etag="LUoUKxZr8zyEvpo_JQ3a" version="22.1.16" type="device">
  <diagram name="Stránka-1" id="b2EpjV5Y1ziamLGv4I3B">
    <mxGraphModel dx="2200" dy="1485" grid="1" gridSize="10" guides="1" tooltips="1" connect="1" arrows="1" fold="1" page="1" pageScale="1" pageWidth="827" pageHeight="1169" math="0" shadow="0">
      <root>
        <mxCell id="0" />
        <mxCell id="1" parent="0" />
        <mxCell id="EAWr2vL6ajQY5sb5bvZC-1" value="" style="shape=image;verticalLabelPosition=bottom;labelBackgroundColor=default;verticalAlign=top;aspect=fixed;imageAspect=0;image=https://upload.wikimedia.org/wikipedia/commons/thumb/c/c2/KNX_logo.svg/1280px-KNX_logo.svg.png;" vertex="1" parent="1">
          <mxGeometry x="-230" y="390" width="460.73" height="220" as="geometry" />
        </mxCell>
        <mxCell id="EAWr2vL6ajQY5sb5bvZC-2" value="" style="html=1;verticalLabelPosition=bottom;align=center;labelBackgroundColor=#ffffff;verticalAlign=top;strokeWidth=4;strokeColor=#3399FF;shadow=0;dashed=0;shape=mxgraph.ios7.icons.lightbulb;fillColor=none;fontColor=#ffffff;" vertex="1" parent="1">
          <mxGeometry x="-430" y="500" width="70" height="98" as="geometry" />
        </mxCell>
        <mxCell id="EAWr2vL6ajQY5sb5bvZC-3" value="&lt;font style=&quot;font-size: 20px;&quot;&gt;Osvětlení&lt;/font&gt;" style="text;html=1;align=center;verticalAlign=middle;resizable=0;points=[];autosize=1;strokeColor=none;fillColor=none;" vertex="1" parent="1">
          <mxGeometry x="-450" y="605" width="110" height="40" as="geometry" />
        </mxCell>
        <mxCell id="EAWr2vL6ajQY5sb5bvZC-6" value="&lt;font style=&quot;font-size: 20px;&quot;&gt;Žaluzie&lt;br&gt;&lt;/font&gt;" style="text;html=1;align=center;verticalAlign=middle;resizable=0;points=[];autosize=1;strokeColor=none;fillColor=none;" vertex="1" parent="1">
          <mxGeometry x="-380" y="340" width="90" height="40" as="geometry" />
        </mxCell>
        <mxCell id="EAWr2vL6ajQY5sb5bvZC-7" value="&lt;font style=&quot;font-size: 20px;&quot;&gt;Topení&lt;br&gt;&lt;/font&gt;" style="text;html=1;align=center;verticalAlign=middle;resizable=0;points=[];autosize=1;strokeColor=none;fillColor=none;" vertex="1" parent="1">
          <mxGeometry x="-59.999999999999986" y="290" width="80" height="40" as="geometry" />
        </mxCell>
        <mxCell id="EAWr2vL6ajQY5sb5bvZC-8" value="&lt;font style=&quot;font-size: 20px;&quot;&gt;Monitorování&lt;br&gt;&lt;/font&gt;" style="text;html=1;align=center;verticalAlign=middle;resizable=0;points=[];autosize=1;strokeColor=none;fillColor=none;" vertex="1" parent="1">
          <mxGeometry x="230.73000000000002" y="330" width="140" height="40" as="geometry" />
        </mxCell>
        <mxCell id="EAWr2vL6ajQY5sb5bvZC-9" value="&lt;font style=&quot;font-size: 20px;&quot;&gt;Vizualizace&lt;br&gt;&lt;/font&gt;" style="text;html=1;align=center;verticalAlign=middle;resizable=0;points=[];autosize=1;strokeColor=none;fillColor=none;" vertex="1" parent="1">
          <mxGeometry x="310" y="600" width="120" height="40" as="geometry" />
        </mxCell>
        <mxCell id="EAWr2vL6ajQY5sb5bvZC-10" value="" style="shape=mxgraph.pid.heat_exchangers.fixed_straight_tubes_heat_exchanger;html=1;pointerEvents=1;align=center;verticalLabelPosition=bottom;verticalAlign=top;dashed=0;fillColor=none;fontColor=#ffffff;strokeColor=#3399FF;strokeWidth=4;" vertex="1" parent="1">
          <mxGeometry x="-400" y="270" width="130" height="70" as="geometry" />
        </mxCell>
        <mxCell id="EAWr2vL6ajQY5sb5bvZC-11" value="" style="shape=mxgraph.pid.heat_exchangers.hairpin_exchanger;html=1;pointerEvents=1;align=center;verticalLabelPosition=bottom;verticalAlign=top;dashed=0;fillColor=#3399FF;fontColor=#ffffff;strokeColor=#001DBC;rotation=-90;" vertex="1" parent="1">
          <mxGeometry x="-79.99999999999999" y="230" width="91" height="30" as="geometry" />
        </mxCell>
        <mxCell id="EAWr2vL6ajQY5sb5bvZC-12" value="" style="shape=mxgraph.pid.heat_exchangers.hairpin_exchanger;html=1;pointerEvents=1;align=center;verticalLabelPosition=bottom;verticalAlign=top;dashed=0;fillColor=#3399FF;fontColor=#ffffff;strokeColor=#001DBC;rotation=-90;" vertex="1" parent="1">
          <mxGeometry x="-69.99999999999999" y="230" width="91" height="30" as="geometry" />
        </mxCell>
        <mxCell id="EAWr2vL6ajQY5sb5bvZC-13" value="" style="shape=mxgraph.pid.heat_exchangers.hairpin_exchanger;html=1;pointerEvents=1;align=center;verticalLabelPosition=bottom;verticalAlign=top;dashed=0;fillColor=#3399FF;fontColor=#ffffff;strokeColor=#001DBC;rotation=-90;" vertex="1" parent="1">
          <mxGeometry x="-59.999999999999986" y="230" width="91" height="30" as="geometry" />
        </mxCell>
        <mxCell id="EAWr2vL6ajQY5sb5bvZC-14" value="" style="shape=mxgraph.pid.heat_exchangers.hairpin_exchanger;html=1;pointerEvents=1;align=center;verticalLabelPosition=bottom;verticalAlign=top;dashed=0;fillColor=#3399FF;fontColor=#ffffff;strokeColor=#001DBC;rotation=-90;" vertex="1" parent="1">
          <mxGeometry x="-49.999999999999986" y="230" width="91" height="30" as="geometry" />
        </mxCell>
        <mxCell id="EAWr2vL6ajQY5sb5bvZC-16" value="" style="sketch=0;outlineConnect=0;fontColor=#232F3E;gradientColor=none;fillColor=#3399FF;strokeColor=none;dashed=0;verticalLabelPosition=bottom;verticalAlign=top;align=center;html=1;fontSize=12;fontStyle=0;aspect=fixed;pointerEvents=1;shape=mxgraph.aws4.iot_thing_temperature_humidity_sensor;" vertex="1" parent="1">
          <mxGeometry x="261.73" y="240" width="78" height="78" as="geometry" />
        </mxCell>
        <mxCell id="EAWr2vL6ajQY5sb5bvZC-17" value="CO&lt;sub style=&quot;font-size: 7px;&quot;&gt;2&lt;/sub&gt;" style="text;html=1;align=center;verticalAlign=middle;resizable=0;points=[];autosize=1;strokeColor=none;fillColor=none;fontSize=7;fontStyle=1;fontColor=#3399FF;" vertex="1" parent="1">
          <mxGeometry x="261.73" y="285" width="40" height="20" as="geometry" />
        </mxCell>
        <mxCell id="EAWr2vL6ajQY5sb5bvZC-18" value="" style="verticalLabelPosition=bottom;html=1;verticalAlign=top;align=center;strokeColor=none;fillColor=#3399FF;shape=mxgraph.azure.computer;pointerEvents=1;" vertex="1" parent="1">
          <mxGeometry x="317.5" y="510" width="105" height="95" as="geometry" />
        </mxCell>
        <mxCell id="EAWr2vL6ajQY5sb5bvZC-19" value="&lt;font style=&quot;font-size: 20px;&quot;&gt;Grafy&lt;/font&gt;" style="text;html=1;align=center;verticalAlign=middle;resizable=0;points=[];autosize=1;strokeColor=none;fillColor=none;" vertex="1" parent="1">
          <mxGeometry x="99.57000000000002" y="807.14" width="70" height="40" as="geometry" />
        </mxCell>
        <mxCell id="EAWr2vL6ajQY5sb5bvZC-20" value="&lt;font style=&quot;font-size: 20px;&quot;&gt;AI&lt;/font&gt;" style="text;html=1;align=center;verticalAlign=middle;resizable=0;points=[];autosize=1;strokeColor=none;fillColor=none;" vertex="1" parent="1">
          <mxGeometry x="-205" y="805" width="40" height="40" as="geometry" />
        </mxCell>
        <mxCell id="EAWr2vL6ajQY5sb5bvZC-21" value="" style="shape=mxgraph.signs.healthcare.brain;html=1;pointerEvents=1;fillColor=#3399FF;strokeColor=none;verticalLabelPosition=bottom;verticalAlign=top;align=center;" vertex="1" parent="1">
          <mxGeometry x="-220" y="740" width="98" height="85" as="geometry" />
        </mxCell>
        <mxCell id="EAWr2vL6ajQY5sb5bvZC-22" value="" style="sketch=0;aspect=fixed;pointerEvents=1;shadow=0;dashed=0;html=1;strokeColor=none;labelPosition=center;verticalLabelPosition=bottom;verticalAlign=top;align=center;fillColor=#3399FF;shape=mxgraph.mscae.general.graph" vertex="1" parent="1">
          <mxGeometry x="80" y="698" width="109.14" height="109.14" as="geometry" />
        </mxCell>
      </root>
    </mxGraphModel>
  </diagram>
</mxfile>
